<?xml version="1.0" standalone="no"?>
<!DOCTYPE svg PUBLIC "-//W3C//DTD SVG 20010904//EN"
 "http://www.w3.org/TR/2001/REC-SVG-20010904/DTD/svg10.dtd">
<svg version="1.0" xmlns="http://www.w3.org/2000/svg"
 width="91.000000pt" height="91.000000pt" viewBox="0 0 91.000000 91.000000"
 preserveAspectRatio="xMidYMid meet">
<metadata>
Created by potrace 1.11, written by Peter Selinger 2001-2013
</metadata>
<g transform="translate(0.000000,91.000000) scale(0.100000,-0.100000)"
fill="#000000" stroke="none">
<path d="M337 890 c-17 -20 -16 -21 9 -30 20 -8 31 -6 49 8 22 18 22 19 4 30
-27 17 -42 15 -62 -8z"/>
<path d="M506 897 c-16 -12 -16 -14 2 -30 14 -13 28 -16 46 -11 31 7 32 15 8
37 -22 20 -33 21 -56 4z"/>
<path d="M421 846 c-18 -21 21 -41 50 -26 16 9 18 14 8 26 -15 18 -43 18 -58
0z"/>
<path d="M198 839 c-10 -5 -18 -19 -18 -29 0 -30 44 -26 64 5 9 14 12 25 7 25
-5 0 -15 2 -23 5 -7 2 -21 0 -30 -6z"/>
<path d="M663 844 c-9 -4 -9 -11 -1 -30 8 -17 19 -24 40 -24 33 0 36 12 8 40
-20 20 -26 22 -47 14z"/>
<path d="M571 831 c-16 -10 2 -51 22 -51 21 0 40 17 33 29 -12 18 -41 30 -55
22z"/>
<path d="M279 814 c-10 -13 -10 -17 2 -25 8 -5 19 -9 25 -9 14 0 34 21 34 37
0 18 -45 16 -61 -3z"/>
<path d="M365 796 c-18 -13 -18 -14 2 -24 15 -9 25 -8 39 3 17 13 17 16 4 25
-20 13 -23 13 -45 -4z"/>
<path d="M492 803 c-21 -8 15 -42 39 -36 22 6 24 14 7 31 -13 13 -24 14 -46 5z"/>
<path d="M430 760 c-13 -9 -13 -11 0 -20 18 -12 21 -12 39 -1 15 10 7 31 -12
31 -7 0 -19 -5 -27 -10z"/>
<path d="M184 750 c-21 -8 -39 -46 -26 -54 14 -8 49 13 55 33 6 26 -1 31 -29
21z"/>
<path d="M246 744 c-9 -24 -7 -32 8 -30 18 2 46 26 46 37 0 16 -48 10 -54 -7z"/>
<path d="M610 746 c0 -23 23 -35 55 -27 3 0 1 10 -5 21 -12 23 -50 27 -50 6z"/>
<path d="M692 739 c2 -12 13 -28 25 -36 21 -14 23 -14 30 2 4 12 -1 24 -16 37
-30 24 -43 23 -39 -3z"/>
<path d="M322 738 c-7 -7 -12 -16 -12 -20 0 -13 37 -9 49 5 20 24 -14 38 -37
15z"/>
<path d="M542 733 c2 -10 13 -19 26 -21 24 -4 29 7 10 26 -18 18 -40 15 -36
-5z"/>
<path d="M93 729 c-23 -8 -28 -19 -23 -49 3 -22 6 -23 28 -11 19 10 36 58 23
65 -3 2 -16 0 -28 -5z"/>
<path d="M787 733 c-14 -13 -6 -53 12 -63 32 -16 43 -12 39 16 -3 27 -39 60
-51 47z"/>
<path d="M232 678 c-14 -14 -16 -38 -3 -38 12 0 41 29 41 41 0 13 -24 11 -38
-3z"/>
<path d="M640 670 c0 -11 2 -20 4 -20 2 0 11 -3 20 -6 11 -4 16 0 16 14 0 11
-7 23 -16 26 -23 9 -24 8 -24 -14z"/>
<path d="M169 662 c-14 -12 -20 -25 -16 -36 9 -24 42 -2 45 30 2 29 1 29 -29
6z"/>
<path d="M710 656 c0 -15 8 -30 20 -36 18 -9 20 -8 20 14 0 15 -8 30 -20 36
-18 9 -20 8 -20 -14z"/>
<path d="M98 629 c-21 -12 -24 -59 -4 -59 23 0 40 28 30 50 -7 15 -13 17 -26
9z"/>
<path d="M778 617 c-3 -16 3 -28 19 -40 22 -17 23 -17 24 0 2 30 -2 48 -14 55
-19 12 -24 9 -29 -15z"/>
<path d="M170 585 c-7 -8 -9 -22 -6 -31 5 -13 9 -14 21 -4 17 14 20 36 6 44
-5 3 -14 -1 -21 -9z"/>
<path d="M703 583 c0 -23 16 -45 28 -37 15 9 10 41 -7 48 -21 8 -21 8 -21 -11z"/>
<path d="M16 571 c-17 -18 -14 -71 4 -71 18 0 38 37 33 63 -6 32 -14 34 -37 8z"/>
<path d="M852 566 c-9 -21 -8 -29 8 -48 17 -20 21 -21 30 -8 15 23 12 45 -8
64 -18 15 -19 15 -30 -8z"/>
<path d="M110 541 c-10 -20 -4 -51 11 -51 13 0 27 31 22 51 -7 24 -20 24 -33
0z"/>
<path d="M764 545 c-7 -19 7 -50 22 -50 16 0 15 41 0 55 -13 10 -17 9 -22 -5z"/>
<path d="M180 516 c0 -9 5 -16 10 -16 6 0 10 4 10 9 0 6 -4 13 -10 16 -5 3
-10 -1 -10 -9z"/>
<path d="M62 488 c-16 -16 -15 -43 2 -57 21 -18 41 21 26 49 -13 24 -13 23
-28 8z"/>
<path d="M812 480 c-10 -16 -10 -24 0 -40 16 -25 20 -25 35 -1 10 16 9 24 -5
41 l-17 21 -13 -21z"/>
<path d="M145 470 c-11 -33 16 -57 29 -25 6 17 -2 45 -14 45 -5 0 -11 -9 -15
-20z"/>
<path d="M732 478 c-9 -11 -9 -19 1 -32 11 -15 15 -16 25 -4 9 11 9 19 -1 32
-11 15 -15 16 -25 4z"/>
<path d="M106 414 c-6 -17 9 -54 23 -54 15 0 19 36 6 53 -15 21 -21 21 -29 1z"/>
<path d="M772 418 c-13 -13 -16 -41 -6 -51 10 -10 34 5 34 22 0 28 -14 43 -28
29z"/>
<path d="M9 404 c-11 -13 -11 -20 1 -42 8 -14 20 -27 26 -29 18 -6 26 44 12
67 -15 24 -22 25 -39 4z"/>
<path d="M858 397 c-11 -15 -13 -29 -7 -45 7 -19 12 -21 29 -12 20 11 25 35
14 64 -8 22 -19 20 -36 -7z"/>
<path d="M165 359 c-7 -20 6 -38 28 -39 13 0 8 37 -7 49 -12 10 -16 8 -21 -10z"/>
<path d="M718 366 c-19 -19 -23 -32 -10 -40 15 -9 34 11 30 35 -3 22 -4 22
-20 5z"/>
<path d="M80 327 c0 -22 39 -71 41 -51 0 5 2 19 5 31 2 15 -3 26 -15 33 -28
14 -31 13 -31 -13z"/>
<path d="M787 335 c-15 -14 -12 -55 3 -55 8 0 40 28 40 35 0 12 -13 35 -20 35
-5 0 -15 -7 -23 -15z"/>
<path d="M150 282 c0 -19 39 -49 41 -32 1 5 2 16 3 23 1 6 -3 15 -9 19 -18 13
-35 9 -35 -10z"/>
<path d="M711 278 c-5 -13 -7 -26 -4 -31 8 -13 43 13 43 33 0 27 -29 25 -39
-2z"/>
<path d="M226 271 c-10 -16 5 -41 25 -41 23 0 24 13 3 34 -18 19 -21 19 -28 7z"/>
<path d="M658 272 c-22 -4 -24 -42 -3 -42 16 0 30 23 23 38 -1 4 -11 6 -20 4z"/>
<path d="M64 246 c-8 -20 12 -53 36 -59 17 -4 20 0 20 24 0 38 -44 65 -56 35z"/>
<path d="M803 248 c-16 -8 -23 -20 -23 -40 0 -32 0 -32 35 -16 18 8 25 19 25
40 0 30 -4 32 -37 16z"/>
<path d="M720 217 c-30 -15 -41 -57 -13 -52 10 2 21 4 24 4 7 1 22 51 17 57
-2 2 -15 -3 -28 -9z"/>
<path d="M157 203 c17 -49 56 -61 51 -15 -2 21 -9 28 -30 30 -23 3 -27 0 -21
-15z"/>
<path d="M242 185 c2 -14 12 -21 31 -23 25 -3 26 -2 16 20 -13 30 -51 33 -47
3z"/>
<path d="M317 203 c-11 -10 13 -33 34 -33 22 0 24 11 7 28 -13 13 -31 16 -41
5z"/>
<path d="M546 194 c-9 -24 -8 -26 16 -22 29 4 38 38 10 38 -11 0 -23 -7 -26
-16z"/>
<path d="M634 200 c-12 -5 -24 -15 -27 -24 -10 -24 40 -21 53 3 12 24 2 31
-26 21z"/>
<path d="M433 175 c-17 -13 -17 -14 0 -20 20 -8 47 0 47 14 0 16 -28 20 -47 6z"/>
<path d="M365 146 c-15 -11 -15 -13 -1 -25 15 -12 56 -7 56 7 0 4 -9 13 -19
19 -15 9 -23 9 -36 -1z"/>
<path d="M494 143 c-16 -12 -17 -15 -4 -23 8 -5 20 -10 26 -10 11 0 34 20 34
31 0 14 -37 16 -56 2z"/>
<path d="M176 133 c-2 -2 -2 -13 1 -24 7 -25 38 -42 63 -34 18 6 18 8 4 30
-13 20 -57 39 -68 28z"/>
<path d="M293 133 c-28 -5 -29 -15 -5 -35 12 -11 24 -13 40 -7 21 8 22 9 5 29
-10 11 -18 19 -18 19 0 -1 -10 -4 -22 -6z"/>
<path d="M574 119 c-15 -17 -16 -22 -5 -29 23 -14 60 8 61 35 0 19 -38 14 -56
-6z"/>
<path d="M662 105 c-16 -34 -16 -35 12 -35 14 0 32 10 40 22 22 31 20 38 -12
38 -21 0 -32 -7 -40 -25z"/>
<path d="M427 99 c-14 -8 -16 -14 -6 -25 13 -16 38 -18 59 -4 13 9 12 12 -4
25 -23 18 -25 18 -49 4z"/>
<path d="M341 59 c-23 -9 -23 -10 -6 -29 20 -22 41 -25 65 -10 12 7 12 12 -4
29 -21 23 -22 23 -55 10z"/>
<path d="M504 49 c-16 -17 -16 -22 -4 -29 24 -15 45 -12 65 10 17 19 17 20 -9
30 -34 13 -30 14 -52 -11z"/>
</g>
</svg>
